<?xml version="1.0" standalone="no"?>
<!DOCTYPE svg PUBLIC "-//W3C//DTD SVG 20010904//EN"
 "http://www.w3.org/TR/2001/REC-SVG-20010904/DTD/svg10.dtd">
<svg version="1.0" xmlns="http://www.w3.org/2000/svg"
 width="241.000000pt" height="209.000000pt" viewBox="0 0 241.000000 209.000000"
 preserveAspectRatio="xMidYMid meet">

<g transform="translate(0.000000,209.000000) scale(0.100000,-0.100000)"
fill="#FF006F" stroke="none">
<path d="M349 1947 c-70 -47 -69 -35 -69 -584 l0 -493 30 0 29 0 3 495 3 494
23 23 23 23 784 3 c856 3 844 3 865 -53 6 -16 10 -162 10 -356 l0 -329 30 0
30 0 0 349 c0 345 0 348 -23 382 -48 73 1 69 -898 69 l-806 0 -34 -23z"/>
<path d="M1510 635 l0 -465 345 0 345 0 0 465 0 465 -345 0 -345 0 0 -465z
m620 25 l0 -370 -280 0 -280 0 0 370 0 370 280 0 280 0 0 -370z m-372 -409
c19 -11 11 -45 -11 -49 -19 -4 -32 20 -23 43 6 17 15 19 34 6z m110 0 c19 -11
11 -45 -11 -49 -19 -4 -32 20 -23 43 6 17 15 19 34 6z m112 -6 c10 -12 10 -18
0 -30 -16 -19 -39 -19 -46 0 -6 15 11 45 26 45 4 0 13 -7 20 -15z"/>
<path d="M210 490 l0 -320 205 0 205 0 0 320 0 320 -205 0 -205 0 0 -320z
m270 270 c0 -6 -28 -10 -65 -10 -37 0 -65 4 -65 10 0 6 28 10 65 10 37 0 65
-4 65 -10z m100 -275 l0 -235 -165 0 -165 0 0 235 0 235 165 0 165 0 0 -235z
m-145 -275 c0 -29 -32 -41 -41 -16 -9 24 4 48 23 44 12 -2 18 -12 18 -28z"/>
<path d="M680 635 l0 -65 380 0 380 0 0 65 0 65 -380 0 -380 0 0 -65z m550 1
c0 -23 -30 -41 -48 -30 -23 15 -25 29 -7 48 12 12 21 13 36 6 10 -6 19 -17 19
-24z"/>
<path d="M1012 494 c-20 -13 -22 -24 -22 -95 l0 -79 -65 0 c-57 0 -69 -3 -90
-25 -29 -28 -32 -70 -9 -103 15 -22 16 -22 315 -22 l299 0 0 75 c0 68 -2 75
-20 75 -18 0 -20 7 -20 79 0 111 0 111 -205 111 -129 0 -165 -3 -183 -16z"/>
</g>
</svg>
