<?xml version="1.0" standalone="no"?>
<!DOCTYPE svg PUBLIC "-//W3C//DTD SVG 20010904//EN"
 "http://www.w3.org/TR/2001/REC-SVG-20010904/DTD/svg10.dtd">
<svg version="1.0" xmlns="http://www.w3.org/2000/svg"
 width="225.000000pt" height="225.000000pt" viewBox="0 0 225.000000 225.000000"
 preserveAspectRatio="xMidYMid meet">

<g transform="translate(0.000000,225.000000) scale(0.100000,-0.100000)"
fill="#FF006F" stroke="none">
<path d="M1473 1960 c-115 -17 -260 -115 -320 -218 -14 -24 -29 -40 -33 -35
-3 4 -24 32 -45 62 -46 64 -134 131 -213 162 -45 18 -78 23 -157 23 -92 1
-105 -1 -167 -31 -121 -57 -191 -144 -236 -293 -46 -152 -34 -297 36 -443 59
-121 127 -205 301 -372 302 -291 418 -411 457 -469 l38 -58 16 23 c48 73 146
182 258 285 386 357 503 507 553 714 19 80 15 240 -9 322 -64 223 -262 358
-479 328z m196 -51 c82 -28 165 -100 218 -189 62 -103 76 -315 30 -455 -15
-44 -43 -108 -64 -142 l-37 -63 -367 0 -368 0 -21 57 -21 58 48 45 c26 25 77
71 113 103 l65 57 -67 132 -67 133 27 50 c15 27 54 77 87 110 121 124 265 159
424 104z m-863 7 c119 -31 225 -116 285 -229 18 -34 58 -115 87 -179 l54 -118
-106 -101 c-58 -56 -106 -106 -106 -113 0 -6 32 -86 70 -176 39 -90 70 -170
70 -178 0 -40 -164 -51 -234 -15 -17 9 -60 21 -96 27 -64 11 -65 11 -64 42 l2
31 -30 -14 c-35 -18 -51 -9 -131 68 -28 27 -52 47 -55 45 -2 -2 28 -35 67 -72
76 -72 175 -129 239 -137 37 -4 76 -16 141 -44 27 -11 40 -12 63 -2 48 20 45
1 -10 -54 l-52 -53 45 -113 c26 -62 45 -115 43 -116 -2 -2 -25 23 -53 55 -27
32 -120 122 -205 201 -290 268 -392 383 -458 515 -49 98 -66 168 -66 274 1
166 74 328 182 402 90 62 211 83 318 54z"/>
<path d="M1593 1743 l-42 -78 43 -78 c49 -89 44 -90 101 22 l27 55 -38 78
c-21 43 -41 78 -44 78 -3 0 -25 -35 -47 -77z"/>
<path d="M1686 1565 l-40 -75 39 -80 c21 -44 42 -80 45 -80 3 0 24 36 45 80
l39 81 -39 74 c-22 41 -42 75 -45 75 -3 0 -23 -34 -44 -75z"/>
<path d="M1592 1383 l-40 -78 43 -78 42 -78 25 43 c14 24 33 58 43 77 l17 34
-38 79 c-21 43 -41 78 -45 78 -4 0 -25 -35 -47 -77z"/>
<path d="M522 1613 c-22 -12 -35 -27 -39 -45 -3 -16 -12 -28 -21 -28 -13 0
-13 -2 -1 -17 25 -32 39 -62 39 -86 0 -14 12 -32 31 -46 24 -18 28 -25 18 -37
-6 -7 -9 -21 -5 -29 6 -16 94 -60 140 -70 16 -3 30 -14 33 -25 4 -15 14 -18
59 -18 38 0 60 -5 73 -16 18 -16 19 -16 25 9 7 29 23 32 42 8 12 -16 13 -15
14 13 0 32 22 60 39 50 5 -3 16 11 24 32 13 31 13 38 1 45 -8 4 -14 16 -14 26
0 12 -18 25 -54 40 -35 14 -84 49 -135 96 -44 41 -93 81 -109 89 -47 24 -122
28 -160 9z m233 -153 c142 -57 150 -65 93 -100 -91 -55 -186 -21 -252 91 -17
28 -17 32 -3 26 13 -5 17 -1 17 18 l0 25 38 -16 c20 -8 69 -28 107 -44z"/>
</g>
</svg>
