<?xml version="1.0" standalone="no"?>
<!DOCTYPE svg PUBLIC "-//W3C//DTD SVG 20010904//EN"
 "http://www.w3.org/TR/2001/REC-SVG-20010904/DTD/svg10.dtd">
<svg version="1.0" xmlns="http://www.w3.org/2000/svg"
 width="840.000000pt" height="775.000000pt" viewBox="0 0 840.000000 775.000000"
 preserveAspectRatio="xMidYMid meet">

<g transform="translate(0.000000,775.000000) scale(0.100000,-0.100000)"
fill="#FF006F" stroke="none">
<path d="M3640 6920 l0 -430 635 0 635 0 0 430 0 430 -635 0 -635 0 0 -430z
m250 220 l0 -100 -70 0 -70 0 0 100 0 100 70 0 70 0 0 -100z m830 0 l0 -50
-340 0 -340 0 0 50 0 50 340 0 340 0 0 -50z m-830 -380 l0 -100 -70 0 -70 0 0
100 0 100 70 0 70 0 0 -100z m830 0 l0 -50 -340 0 -340 0 0 50 0 50 340 0 340
0 0 -50z"/>
<path d="M3786 7163 c-20 -57 -20 -63 -1 -63 8 0 15 5 15 10 0 6 9 10 20 10
11 0 20 -4 20 -10 0 -5 7 -10 16 -10 10 0 14 6 11 14 -3 8 -11 32 -18 55 -17
57 -42 55 -63 -6z m39 -3 c3 -5 1 -10 -4 -10 -6 0 -11 5 -11 10 0 6 2 10 4 10
3 0 8 -4 11 -10z"/>
<path d="M3784 6764 c-16 -58 -12 -82 10 -51 16 21 46 22 46 1 0 -9 6 -14 13
-11 24 8 -10 117 -37 117 -10 0 -21 -20 -32 -56z m41 7 c3 -5 1 -12 -5 -16 -5
-3 -10 1 -10 9 0 18 6 21 15 7z"/>
<path d="M6700 6920 l0 -430 640 0 640 0 0 430 0 430 -640 0 -640 0 0 -430z
m250 220 l0 -100 -70 0 -70 0 0 100 0 100 70 0 70 0 0 -100z m838 -2 l3 -48
-340 0 -341 0 0 50 0 50 338 -2 337 -3 3 -47z m-838 -378 l0 -100 -70 0 -70 0
0 100 0 100 70 0 70 0 0 -100z m840 0 l0 -50 -340 0 -340 0 0 50 0 50 340 0
340 0 0 -50z"/>
<path d="M6848 7158 c-16 -55 -7 -74 18 -42 13 18 15 18 28 2 14 -19 36 -24
36 -10 0 5 -7 29 -16 55 -22 66 -47 64 -66 -5z m38 -5 c-10 -10 -19 5 -10 18
6 11 8 11 12 0 2 -7 1 -15 -2 -18z"/>
<path d="M6859 6793 c-18 -46 -23 -93 -10 -93 6 0 11 7 11 15 0 21 30 19 46
-2 22 -32 28 -4 10 52 -19 61 -40 71 -57 28z m27 -40 c-10 -10 -19 5 -10 18 6
11 8 11 12 0 2 -7 1 -15 -2 -18z"/>
<path d="M2500 6759 c-96 -13 -211 -73 -287 -149 -271 -271 -168 -725 194
-857 191 -69 398 -21 543 126 103 105 150 218 150 367 0 319 -278 557 -600
513z"/>
<path d="M5967 6566 c-67 -18 -126 -62 -162 -120 -24 -40 -30 -62 -33 -122 -5
-86 7 -127 53 -187 75 -99 219 -129 333 -71 196 101 196 384 -1 478 -66 32
-129 39 -190 22z"/>
<path d="M4915 6177 c-3 -7 -4 -131 -3 -277 l3 -265 138 -3 137 -3 0 -59 0
-60 -780 0 c-547 0 -780 -3 -780 -11 0 -6 14 -30 31 -55 45 -65 96 -178 121
-269 22 -79 23 -88 26 -833 3 -807 1 -850 -48 -990 -11 -31 -20 -58 -20 -59 0
-2 1004 -3 2230 -3 l2230 0 0 1110 0 1110 -839 0 -838 0 -5 104 c-6 124 -33
192 -102 253 -76 67 -108 73 -384 73 -149 0 -251 -4 -263 -10 -18 -10 -19 -23
-19 -180 l0 -169 -97 -3 -98 -3 -3 -32 -3 -33 -70 0 -70 0 3 58 3 57 138 3
137 3 0 279 0 280 -385 0 c-302 0 -387 -3 -390 -13z"/>
<path d="M1043 6150 c-253 -45 -433 -259 -433 -514 0 -45 7 -105 15 -135 44
-168 174 -305 342 -362 94 -33 230 -32 326 0 307 104 448 457 295 742 -101
191 -335 306 -545 269z"/>
<path d="M2180 5501 c-66 -9 -119 -26 -181 -57 -43 -21 -47 -26 -64 -91 -10
-37 -38 -107 -62 -154 -24 -48 -43 -89 -43 -92 0 -3 28 -20 62 -37 176 -90
305 -222 393 -405 85 -174 80 -115 80 -1040 0 -920 4 -863 -76 -1033 -50 -109
-110 -192 -198 -275 l-71 -67 0 -463 c0 -508 2 -531 60 -632 37 -64 119 -146
180 -179 83 -45 148 -56 340 -56 240 0 319 24 431 128 67 61 123 162 139 251
6 33 10 381 10 906 l0 852 66 39 c115 67 209 187 256 324 23 64 23 71 26 785
2 506 0 744 -8 800 -33 230 -186 404 -420 481 -49 16 -102 18 -460 20 -223 1
-430 -1 -460 -5z"/>
<path d="M660 4924 c-214 -46 -401 -231 -445 -441 -21 -99 -21 -1486 -1 -1584
31 -146 140 -297 270 -373 l66 -39 0 -866 c0 -694 3 -876 14 -916 46 -173 175
-299 347 -340 92 -21 362 -20 450 3 167 44 303 185 338 350 8 37 11 314 11
912 l0 858 58 32 c132 75 245 231 277 385 22 104 22 1466 0 1570 -47 222 -228
403 -450 450 -98 21 -839 20 -935 -1z"/>
</g>
</svg>
