<?xml version="1.0" standalone="no"?>
<!DOCTYPE svg PUBLIC "-//W3C//DTD SVG 20010904//EN"
 "http://www.w3.org/TR/2001/REC-SVG-20010904/DTD/svg10.dtd">
<svg version="1.0" xmlns="http://www.w3.org/2000/svg"
 width="840.000000pt" height="859.000000pt" viewBox="0 0 840.000000 859.000000"
 preserveAspectRatio="xMidYMid meet">

<g transform="translate(0.000000,859.000000) scale(0.100000,-0.100000)"
fill="#FF006F" stroke="none">
<path d="M3935 7864 c-16 -2 -79 -9 -140 -15 -656 -65 -1351 -364 -1885 -812
-361 -302 -676 -696 -885 -1108 l-66 -129 3246 0 3246 0 -66 129 c-285 560
-740 1056 -1282 1398 -429 271 -925 449 -1443 519 -109 15 -651 28 -725 18z"/>
<path d="M40 5213 c5 -16 65 -206 134 -423 155 -492 171 -542 261 -825 40
-126 99 -309 129 -407 l56 -176 235 2 c129 2 237 5 239 7 2 2 25 83 51 179 25
96 55 207 65 245 10 39 57 219 105 400 47 182 88 337 91 345 3 8 77 -250 164
-574 88 -323 162 -591 165 -595 7 -6 465 -4 472 2 2 3 28 80 58 173 94 298
221 690 325 1014 56 173 124 385 151 470 27 85 52 163 55 173 5 16 -11 17
-240 17 -198 0 -246 -3 -246 -13 0 -8 -27 -103 -59 -213 -32 -109 -110 -374
-172 -587 -62 -213 -116 -382 -120 -375 -4 7 -30 103 -58 213 -28 110 -95 373
-149 585 l-98 385 -240 3 -239 2 -78 -297 c-64 -246 -185 -705 -228 -867 -6
-21 -12 -36 -14 -34 -2 2 -78 264 -170 583 -91 319 -168 588 -171 598 -5 16
-25 17 -244 17 l-239 0 9 -27z"/>
<path d="M2826 5218 c3 -13 82 -261 175 -553 92 -291 221 -699 286 -905 l118
-375 240 1 240 1 26 99 c25 95 67 251 130 489 16 61 57 217 91 348 34 130 65
237 69 237 4 0 9 -10 11 -22 3 -13 32 -124 66 -248 33 -124 99 -369 147 -545
47 -176 88 -327 91 -336 6 -23 136 -32 329 -23 l152 7 58 181 c32 99 113 352
180 561 68 209 174 538 235 730 62 193 115 356 117 363 4 9 -48 12 -241 12
-190 0 -246 -3 -246 -12 0 -7 -20 -78 -43 -158 -24 -80 -102 -344 -173 -587
-71 -243 -132 -439 -136 -435 -3 4 -25 81 -48 172 -97 389 -233 919 -246 968
l-15 52 -238 0 -237 0 -57 -217 c-189 -720 -258 -977 -261 -981 -6 -5 2 -32
-191 646 l-158 552 -239 0 -239 0 7 -22z"/>
<path d="M5610 5233 c0 -16 579 -1836 586 -1843 6 -5 474 -4 478 2 2 2 72 267
156 590 84 323 155 586 157 584 4 -4 59 -202 167 -606 36 -135 85 -317 108
-405 l43 -160 105 -8 c58 -4 165 -5 238 -1 132 6 133 6 143 33 6 14 52 157
104 316 51 160 168 524 260 810 92 286 180 559 195 608 l28 87 -242 0 -243 0
-30 -102 c-17 -57 -95 -323 -173 -593 -79 -269 -146 -493 -150 -498 -3 -4 -20
48 -37 115 -31 124 -246 971 -264 1041 l-10 37 -239 0 c-219 0 -239 -1 -244
-17 -6 -20 -208 -788 -269 -1025 -23 -86 -44 -155 -47 -153 -3 2 -82 272 -175
599 l-170 596 -237 0 c-131 0 -238 -3 -238 -7z"/>
<path d="M970 2779 c0 -22 136 -273 213 -396 485 -764 1241 -1318 2112 -1548
330 -87 523 -110 910 -110 377 0 546 19 872 100 908 224 1709 821 2200 1640
64 106 163 298 163 315 0 7 -1047 10 -3235 10 -2430 0 -3235 -3 -3235 -11z"/>
</g>
</svg>
